<svg xmlns="http://www.w3.org/2000/svg" viewBox="0 0 1000 600">
  <path id="AF" title="Afghanistan" d="M685.5,285.5l-2.1-1.3l-4.5,2.1l-4.8-0.4l-1.2,2.6l-3.8,2l-1.9,4l-3.5,1.5l-1.5,4.3l2.1,4.5l3.3,0.4l2.8,3.8l4.3-1.1l5.3-0.8l4.3-1.3l2.6-4.5l0.3-5.2l2.1-1.9l3.5-3.3l-3.1-3.6L685.5,285.5z"/>
  <path id="AL" title="Albania" d="M518.5,231.5l-1.3,0.5l-1.2,1.4l0.1,1.7l1.5,1.2l1.9-0.3l1.2-1.5l-0.2-1.9L518.5,231.5z"/>
  <path id="DZ" title="Algeria" d="M485.5,305.5l-12.8-1.5l-1.2-4.3l-5.2-0.5l-7.5,4.5l-4.8-1.8l-6.1,4.5l2.2,4.3l-1.2,5.2l3.8,4.2l0.1,5.1l4.5,3.3l2.8,4.8l5.2,0.1l4.5,3.3l4.8-0.2l4.3-3.3l3.8-4.8l1.1-5.1l-1.8-5.3l1.5-4.2L485.5,305.5z"/>
  <path id="AO" title="Angola" d="M518.5,441.5l-4.5-1.2l-4.3,3.3l-1.3,5.3l1.5,5.2l4.5,3.1l5.3-0.4l2.1-4.8l-0.4-5.2L518.5,441.5z"/>
  <path id="AR" title="Argentina" d="M305.5,505.5l-4.2-1.5l-4.5,3.2l-1.1,5.1l2.2,4.5l4.8-0.3l5.3-2.1l2.2-4.8l-2.2-4.1L305.5,505.5z"/>
  <path id="AM" title="Armenia" d="M605.5,245.5l-2.2-1.3l-1.2,2.3l1.5,1.1l1.9-2.1V245.5z"/>
  <path id="AU" title="Australia" d="M851.5,485.5l-5.1-4.8l-5.3,1.1l-4.2,3.8l-1.5,5.3l1.2,4.5l5.1,0.3l4.8-1.2l3.8-4.2L851.5,485.5z"/>
  <path id="AT" title="Austria" d="M518.5,191.5l-1.3-1.1l-2.1,1.5l1.2,2.1l2.2-2.5V191.5z"/>
  <path id="AZ" title="Azerbaijan" d="M615.5,235.5l-2.1,1.3l2.1,1.9h2.1l0.3-2.1L615.5,235.5z"/>
  <path id="BD" title="Bangladesh" d="M745.5,305.5l-1.2-1.3l-2.2,1.3l1.5,2.1h1.9V305.5z"/>
  <path id="BY" title="Belarus" d="M555.5,165.5l-3.3-1.2l-4.5,3.3l2.2,4.3l5.3-0.4L555.5,165.5z"/>
  <path id="BE" title="Belgium" d="M491.5,185.5h-1.5l-0.3,1.3l1.5,0.5l0.3-1.8V185.5z"/>
  <path id="BO" title="Bolivia" d="M315.5,425.5l-4.2-2.1l-3.5,3.5l2.2,5.1l5.5-0.3L315.5,425.5z"/>
  <path id="BA" title="Bosnia and Herzegovina" d="M515.5,215.5l-1.2,0.5l1.2,2.3h1.3l-1.3-2.8V215.5z"/>
  <path id="BW" title="Botswana" d="M528.5,481.5l-3.3-1.1l-2.1,4.5l4.3,2.2l1.1-5.6V481.5z"/>
  <path id="BR" title="Brazil" d="M325.5,385.5l-5.2-1.2l-4.3,3.5l-1.1,5.3l2.8,4.5l5.3-0.3l4.2-1.1l3.5-3.8l2.1-4.8l-3.1-2.1L325.5,385.5z"/>
  <path id="BG" title="Bulgaria" d="M541.5,215.5l-2.1,1.3l1.2,2.5h3.2L541.5,215.5z"/>
  <path id="KH" title="Cambodia" d="M785.5,345.5l-1.2-1.3l-2.2,1.3l1.5,2.1h1.9V345.5z"/>
  <path id="CM" title="Cameroon" d="M505.5,365.5l-2.2-2.1l-1.2,4.5l3.4,2.1V365.5z"/>
  <path id="CA" title="Canada" d="M225.5,105.5l-15.3-2.1l-5.2,3.8l-2.1,10.3l4.2,5.1l10.3-0.3l10.1-2.2l5.2-5.3l-2.1-5.1L225.5,105.5z"/>
  <path id="CF" title="Central African Republic" d="M525.5,365.5l-3.2-1.1l-1.2,4.5l4.4,1.1V365.5z"/>
  <path id="TD" title="Chad" d="M525.5,325.5l-5.3-1.2l-2.1,10.3l7.4,1.1V325.5z"/>
  <path id="CL" title="Chile" d="M285.5,505.5l-1.2,10.1h2.4V505.5z"/>
  <path id="CN" title="China" d="M785.5,265.5l-10.2-1.2l-5.3,4.3l-1.1,10.3l4.5,5.1l10.3-0.3l10.1-2.1l5.3-5.2l-2.2-5.1L785.5,265.5z"/>
  <path id="CO" title="Colombia" d="M285.5,365.5l-4.2-2.1l-2.1,8.3l6.3,1.1V365.5z"/>
  <path id="CG" title="Congo" d="M515.5,405.5l-2.2-2.1l-1.2,4.5l3.4,2.1V405.5z"/>
  <path id="CD" title="Congo, Democratic Republic of the" d="M525.5,415.5l-4.3-1.2l-1.1,10.3l5.4,1.1V415.5z"/>
  <path id="CR" title="Costa Rica" d="M265.5,341.5l-1.2,1.3l1.2,2.1h1.3l-1.3-3.4V341.5z"/>
  <path id="CI" title="Cote d'Ivoire" d="M441.5,355.5l-2.1,1.3l1.2,4.5h3.2L441.5,355.5z"/>
  <path id="HR" title="Croatia" d="M511.5,205.5l-1.3,1.1l2.1,2.5h1.2L511.5,205.5z"/>
  <path id="CU" title="Cuba" d="M265.5,285.5l-2.1,1.3l1.2,2.5h3.2L265.5,285.5z"/>
  <path id="CY" title="Cyprus" d="M571.5,255.5l-1.3,1.1l1.3,1.4l1.3-1.1L571.5,255.5z"/>
  <path id="CZ" title="Czech Republic" d="M518.5,181.5l-2.2-1.3l-1.2,2.3l1.5,1.1l1.9-2.1V181.5z"/>
  <path id="DK" title="Denmark" d="M505.5,155.5l-2.1,1.3l1.2,2.5h3.2L505.5,155.5z"/>
  <path id="EC" title="Ecuador" d="M275.5,385.5l-1.2,1.3l1.2,4.5h1.3l-1.3-5.8V385.5z"/>
  <path id="EG" title="Egypt" d="M555.5,295.5l-5.3-1.2l-1.1,10.3l6.4,1.1V295.5z"/>
  <path id="ER" title="Eritrea" d="M585.5,325.5l-1.2,1.3l1.2,4.5h1.3l-1.3-5.8V325.5z"/>
  <path id="EE" title="Estonia" d="M545.5,135.5l-1.3,1.1l1.3,2.4h1.3L545.5,135.5z"/>
  <path id="ET" title="Ethiopia" d="M585.5,355.5l-4.2-1.1l-1.1,8.3l5.3,1.1V355.5z"/>
  <path id="FI" title="Finland" d="M555.5,115.5l-2.1,1.3l1.2,8.5h3.2L555.5,115.5z"/>
  <path id="FR" title="France" d="M485.5,205.5l-4.1-1.3l-4.5,2.1l-1.3,5.2l2.2,4.3l4.3-0.2l5.2-2.1l2.2-4.8l-2.2-3.1L485.5,205.5z"/>
  <path id="GA" title="Gabon" d="M501.5,391.5l-1.2,1.3l1.2,2.5h1.3L501.5,391.5z"/>
  <path id="GE" title="Georgia" d="M595.5,235.5l-2.1,1.3l1.2,2.5h3.2L595.5,235.5z"/>
  <path id="DE" title="Germany" d="M505.5,185.5l-3.2-1.1l-4.3,2.2l-1.1,4.5l2.1,3.3l4.8-0.2l3.5-2.1l1.2-4.1L505.5,185.5z"/>
  <path id="GH" title="Ghana" d="M451.5,355.5l-1.2,1.3l1.2,4.5h1.3L451.5,355.5z"/>
  <path id="GR" title="Greece" d="M525.5,235.5l-3.2-1.1l-1.1,5.3l4.3,1.1V235.5z"/>
  <path id="GT" title="Guatemala" d="M221.5,311.5l-1.2,1.3l1.2,2.1h1.3L221.5,311.5z"/>
  <path id="GN" title="Guinea" d="M411.5,345.5l-2.1,1.3l1.2,2.5h3.2L411.5,345.5z"/>
  <path id="GY" title="Guyana" d="M325.5,355.5l-1.2,1.3l1.2,4.5h1.3L325.5,355.5z"/>
  <path id="HT" title="Haiti" d="M281.5,291.5l-1.2,1.3l1.2,2.1h1.3L281.5,291.5z"/>
  <path id="HN" title="Honduras" d="M231.5,315.5l-2.1,1.3l1.2,2.5h3.2L231.5,315.5z"/>
  <path id="HU" title="Hungary" d="M525.5,195.5l-2.1,1.3l1.2,2.5h3.2L525.5,195.5z"/>
  <path id="IS" title="Iceland" d="M435.5,115.5l-2.1,1.3l1.2,2.5h3.2L435.5,115.5z"/>
  <path id="IN" title="India" d="M715.5,305.5l-5.2-1.2l-4.3,4.5l-1.1,6.3l3.8,5.1l6.3-0.3l5.2-2.1l3.5-4.8l2.1-5.3l-4.2-2.2L715.5,305.5z"/>
  <path id="ID" title="Indonesia" d="M825.5,385.5l-4.2-2.1l-2.1,8.3l6.3,1.1V385.5z"/>
  <path id="IR" title="Iran" d="M645.5,275.5l-6.3-1.1l-1.1,10.3l7.4,1.1V275.5z"/>
  <path id="IQ" title="Iraq" d="M605.5,265.5l-3.2-1.1l-1.1,5.3l4.3,1.1V265.5z"/>
  <path id="IE" title="Ireland" d="M445.5,175.5l-1.2,1.3l1.2,4.5h1.3L445.5,175.5z"/>
  <path id="IL" title="Israel" d="M575.5,275.5h-1.2l-0.1,2.3h1.3V275.5z"/>
  <path id="IT" title="Italy" d="M505.5,215.5l1.3,0.5l1.5,4.3l2.1,0.2l2.1-4.3l-0.1-4.5l-4.3-1.1L505.5,215.5z"/>
  <path id="JM" title="Jamaica" d="M261.5,295.5l-1.2,1.3l1.2,2.1h1.3L261.5,295.5z"/>
  <path id="JP" title="Japan" d="M885.5,245.5l-1.2-0.4l-1.5,2.2l0.1,3.5l2.2,1.1l2.1-0.5l1.1-2.1l-0.3-2.5L885.5,245.5z"/>
  <path id="JO" title="Jordan" d="M585.5,275.5l-1.2,1.3l1.2,2.5h1.3L585.5,275.5z"/>
  <path id="KZ" title="Kazakhstan" d="M665.5,195.5l-10.2-1.2l-5.3,10.3l7.5,1.1l8-10.2V195.5z"/>
  <path id="KE" title="Kenya" d="M575.5,385.5l-2.1,1.3l1.2,6.5h3.2L575.5,385.5z"/>
  <path id="KP" title="Korea, North" d="M835.5,245.5l-1.2,1.3l1.2,2.5h1.3L835.5,245.5z"/>
  <path id="KR" title="Korea, South" d="M835.5,265.5l-1.2,1.3l1.2,2.5h1.3L835.5,265.5z"/>
  <path id="KW" title="Kuwait" d="M621.5,275.5l-1.1,1.3l1.1,1.5h1.2L621.5,275.5z"/>
  <path id="KG" title="Kyrgyzstan" d="M695.5,235.5l-2.1,1.3l1.2,2.5h3.2L695.5,235.5z"/>
  <path id="LA" title="Laos" d="M781.5,315.5l-1.2,1.3l1.2,4.5h1.3L781.5,315.5z"/>
  <path id="LV" title="Latvia" d="M545.5,155.5l-1.2,1.3l1.2,2.5h1.3L545.5,155.5z"/>
  <path id="LB" title="Lebanon" d="M578.5,265.5h-1.2l-0.1,1.3h1.3V265.5z"/>
  <path id="LS" title="Lesotho" d="M545.5,505.5h-1.2v1.5h1.2V505.5z"/>
  <path id="LR" title="Liberia" d="M415.5,365.5l-1.2,1.3l1.2,2.5h1.3L415.5,365.5z"/>
  <path id="LY" title="Libya" d="M515.5,295.5l-6.3-1.1l-1.1,10.3l7.4,1.1V295.5z"/>
  <path id="LT" title="Lithuania" d="M535.5,165.5l-1.2,1.3l1.2,2.5h1.3L535.5,165.5z"/>
  <path id="LU" title="Luxembourg" d="M495.5,195.5l-0.2,0.5l0.2,0.6l0.3-0.5L495.5,195.5z"/>
  <path id="MK" title="Macedonia" d="M531.5,225.5l-1.2,0.5l1.2,1.3h1.3L531.5,225.5z"/>
  <path id="MG" title="Madagascar" d="M605.5,465.5l-2.1,1.3l1.2,8.5h3.2L605.5,465.5z"/>
  <path id="MW" title="Malawi" d="M575.5,435.5l-1.2,1.3l1.2,4.5h1.3L575.5,435.5z"/>
  <path id="MY" title="Malaysia" d="M805.5,365.5l-3.2-1.1l-1.1,2.3h4.3V365.5z"/>
  <path id="ML" title="Mali" d="M445.5,315.5l-5.3-1.2l-1.1,8.3l6.4,1.1V315.5z"/>
  <path id="MT" title="Malta" d="M515.5,245.5h-1.2l0.1,0.5h1.1V245.5z"/>
  <path id="MR" title="Mauritania" d="M415.5,305.5l-5.3-1.2l-1.1,10.3l6.4,1.1V305.5z"/>
  <path id="MX" title="Mexico" d="M225.5,305.5l-4.3-1.2l-4.5,3.3l-1.2,5.2l2.1,4.5l5.3-0.2l4.3-2.2l2.2-4.8l-2.1-3.3L225.5,305.5z"/>
  <path id="MD" title="Moldova" d="M555.5,195.5l-1.2,0.5l1.2,2.3h1.3L555.5,195.5z"/>
  <path id="MN" title="Mongolia" d="M765.5,215.5l-10.2-1.2l-5.3,8.3l15.5,1.1V215.5z"/>
  <path id="ME" title="Montenegro" d="M521.5,221.5l-1.2,0.3l1.2,0.8h1.2L521.5,221.5z"/>
  <path id="MA" title="Morocco" d="M435.5,275.5l-5.3-1.2l-1.1,6.3l6.4,1.1V275.5z"/>
  <path id="MZ" title="Mozambique" d="M575.5,465.5l-2.1,1.3l1.2,8.5h3.2L575.5,465.5z"/>
  <path id="MM" title="Myanmar" d="M755.5,315.5l-3.2-1.1l-1.1,8.3l4.3,1.1V315.5z"/>
  <path id="NA" title="Namibia" d="M505.5,475.5l-4.3-1.2l-1.1,10.3l5.4,1.1V475.5z"/>
  <path id="NP" title="Nepal" d="M715.5,285.5l-2.1,1.3l1.2,2.5h3.2L715.5,285.5z"/>
  <path id="NL" title="Netherlands" d="M495.5,175.5h-1.5l-0.3,1.3l1.5,0.5l0.3-1.8V175.5z"/>
  <path id="NZ" title="New Zealand" d="M945.5,525.5l-2.1,1.3l1.2,4.5h3.2L945.5,525.5z"/>
  <path id="NI" title="Nicaragua" d="M235.5,325.5l-2.1,1.3l1.2,2.5h3.2L235.5,325.5z"/>
  <path id="NE" title="Niger" d="M485.5,315.5l-5.3-1.2l-1.1,8.3l6.4,1.1V315.5z"/>
  <path id="NG" title="Nigeria" d="M485.5,355.5l-4.2-1.1l-1.1,8.3l5.3,1.1V355.5z"/>
  <path id="NO" title="Norway" d="M495.5,105.5l-2.1,1.3l1.2,15.5h3.2L495.5,105.5z"/>
  <path id="OM" title="Oman" d="M625.5,305.5l-2.1,1.3l1.2,4.5h3.2L625.5,305.5z"/>
  <path id="PK" title="Pakistan" d="M685.5,295.5l-3.2-1.1l-1.1,8.3l4.3,1.1V295.5z"/>
  <path id="PA" title="Panama" d="M265.5,355.5l-2.1,1.3l1.2,2.5h3.2L265.5,355.5z"/>
  <path id="PY" title="Paraguay" d="M315.5,465.5l-3.2-1.1l-1.1,4.3h4.3V465.5z"/>
  <path id="PE" title="Peru" d="M285.5,415.5l-4.2-2.1l-2.1,12.3l6.3,1.1V415.5z"/>
  <path id="PH" title="Philippines" d="M855.5,325.5l-2.1,1.3l1.2,6.5h3.2L855.5,325.5z"/>
  <path id="PL" title="Poland" d="M525.5,175.5l-4.2-1.1l-1.1,8.3l5.3,1.1V175.5z"/>
  <path id="PT" title="Portugal" d="M445.5,225.5l-1.2,1.3l1.2,6.5h1.3L445.5,225.5z"/>
  <path id="RO" title="Romania" d="M545.5,195.5l-4.2-1.1l-1.1,8.3l5.3,1.1V195.5z"/>
  <path id="RU" title="Russia" d="M705.5,105.5l-25.3-2.1l-5.2,10.3l-2.1,20.3l10.2,10.1l25.3-0.3l25.1-5.2l5.2-20.3l-10.1-10.1L705.5,105.5z"/>
  <path id="RW" title="Rwanda" d="M565.5,405.5h-1.2v1.3h1.2V405.5z"/>
  <path id="SA" title="Saudi Arabia" d="M595.5,295.5l-6.3-1.1l-1.1,10.3l7.4,1.1V295.5z"/>
  <path id="SN" title="Senegal" d="M401.5,325.5l-1.2,1.3l1.2,2.5h1.3L401.5,325.5z"/>
  <path id="RS" title="Serbia" d="M531.5,205.5l-2.1,1.3l1.2,4.3h3.2L531.5,205.5z"/>
  <path id="SL" title="Sierra Leone" d="M405.5,355.5l-1.2,1.3l1.2,2.5h1.3L405.5,355.5z"/>
  <path id="SK" title="Slovakia" d="M531.5,185.5l-1.2,0.5l1.2,1.3h1.3L531.5,185.5z"/>
  <path id="SI" title="Slovenia" d="M515.5,201.5l-0.5,0.3l0.5,0.5h0.8L515.5,201.5z"/>
  <path id="SO" title="Somalia" d="M605.5,365.5l-2.1,1.3l1.2,10.5h3.2L605.5,365.5z"/>
  <path id="ZA" title="South Africa" d="M535.5,525.5l-4.2-1.1l-4.5,3.3l-1.1,5.3l2.1,4.3l5.3-0.2l4.2-2.1l2.2-4.1l-2.2-4.3L535.5,525.5z"/>
  <path id="ES" title="Spain" d="M455.5,225.5l-5.3-1.2l-1.1,8.3l6.4,1.1V225.5z"/>
  <path id="LK" title="Sri Lanka" d="M725.5,355.5l-1.2,1.3l1.2,2.1h1.3L725.5,355.5z"/>
  <path id="SD" title="Sudan" d="M555.5,325.5l-6.3-1.1l-1.1,10.3l7.4,1.1V325.5z"/>
  <path id="SR" title="Suriname" d="M335.5,355.5l-1.2,1.3l1.2,4.5h1.3L335.5,355.5z"/>
  <path id="SZ" title="Swaziland" d="M555.5,495.5h-1.2v1.1h1.2V495.5z"/>
  <path id="SE" title="Sweden" d="M515.5,105.5l-2.1,1.3l1.2,15.5h3.2L515.5,105.5z"/>
  <path id="CH" title="Switzerland" d="M495.5,205.5l-1.2,0.5l1.2,1.3h1.3L495.5,205.5z"/>
  <path id="SY" title="Syria" d="M595.5,265.5l-2.1,1.3l1.2,2.5h3.2L595.5,265.5z"/>
  <path id="TJ" title="Tajikistan" d="M695.5,245.5l-1.2,0.5l1.2,1.3h1.3L695.5,245.5z"/>
  <path id="TZ" title="Tanzania" d="M575.5,415.5l-3.2-1.1l-1.1,8.3l4.3,1.1V415.5z"/>
  <path id="TH" title="Thailand" d="M775.5,325.5l-2.1,1.3l1.2,8.5h3.2L775.5,325.5z"/>
  <path id="TG" title="Togo" d="M461.5,355.5l-0.8,1.3l0.8,4.5h1.1L461.5,355.5z"/>
  <path id="TT" title="Trinidad and Tobago" d="M315.5,341.5l-1.1,0.5l1.1,1.3h1.3L315.5,341.5z"/>
  <path id="TN" title="Tunisia" d="M495.5,275.5l-2.1,1.3l1.2,4.5h3.2L495.5,275.5z"/>
  <path id="TR" title="Turkey" d="M585.5,235.5l-8.3-1.1l-1.1,6.3l9.4,1.1V235.5z"/>
  <path id="TM" title="Turkmenistan" d="M645.5,235.5l-4.3-1.1l-1.1,8.3l5.4,1.1V235.5z"/>
  <path id="UG" title="Uganda" d="M565.5,385.5l-1.2,1.3l1.2,4.5h1.3L565.5,385.5z"/>
  <path id="UA" title="Ukraine" d="M565.5,175.5l-8.3-1.1l-1.1,8.3l9.4,1.1V175.5z"/>
  <path id="AE" title="United Arab Emirates" d="M625.5,291.5l-1.2,0.8l1.2,1.3h1.3L625.5,291.5z"/>
  <path id="GB" title="United Kingdom" d="M465.5,165.5l-4.2-1.1l-1.1,12.3l5.3,1.1V165.5z"/>
  <path id="US" title="United States" d="M225.5,205.5l-20.3-1.2l-5.2,8.3l-2.1,15.3l10.2,10.1l25.3-0.3l20.1-5.2l5.2-15.3l-10.1-10.1L225.5,205.5z"/>
  <path id="UY" title="Uruguay" d="M315.5,495.5l-1.2,1.1l1.2,2.3h1.3L315.5,495.5z"/>
  <path id="UZ" title="Uzbekistan" d="M665.5,225.5l-5.3-1.1l-1.1,8.3l6.4,1.1V225.5z"/>
  <path id="VE" title="Venezuela" d="M305.5,345.5l-4.2-1.1l-1.1,8.3l5.3,1.1V345.5z"/>
  <path id="VN" title="Vietnam" d="M805.5,325.5l-1.2,1.3l1.2,12.5h1.3L805.5,325.5z"/>
  <path id="YE" title="Yemen" d="M605.5,325.5l-4.2-1.1l-1.1,8.3l5.3,1.1V325.5z"/>
  <path id="ZM" title="Zambia" d="M555.5,435.5l-4.3-1.2l-1.1,10.3l5.4,1.1V435.5z"/>
  <path id="ZW" title="Zimbabwe" d="M555.5,465.5l-2.1,1.3l1.2,6.5h3.2L555.5,465.5z"/>
</svg>